<svg style="display: none" xmlns="http://www.w3.org/2000/svg">
  <symbol viewBox="0 0 25 25" id="classmates">
    <path d="M12.5 0C5.59692 0 0 5.59692 0 12.5C0 19.4031 5.59692 25 12.5 25C19.4031 25 25 19.4031 25 12.5C25 5.59692 19.4031 0 12.5 0Z"/>
    <path d="M12.6803 6.88879C13.5788 6.88879 14.3095 7.64309 14.3095 8.57061C14.3095 9.49533 13.5788 10.2496 12.6803 10.2496C11.7818 10.2496 11.0511 9.49533 11.0511 8.57061C11.0511 7.64309 11.7818 6.88879 12.6803 6.88879ZM12.6803 12.6299C14.8508 12.6299 16.6153 10.8084 16.6153 8.57061C16.6153 6.33005 14.8508 4.50854 12.6803 4.50854C10.5099 4.50854 8.74806 6.33005 8.74806 8.57061C8.74806 10.8084 10.5099 12.6299 12.6803 12.6299ZM14.2716 15.9432C15.0727 15.7532 15.844 15.4264 16.5558 14.9654C17.0943 14.6162 17.2567 13.8815 16.9184 13.3255C16.5774 12.7668 15.8684 12.5991 15.3271 12.9511C13.7168 13.996 11.6438 13.996 10.0308 12.9511C9.49229 12.5991 8.78054 12.7668 8.44225 13.3255C8.10396 13.8815 8.26634 14.6162 8.80489 14.9654C9.51665 15.4264 10.2879 15.7532 11.089 15.9432L8.88879 18.2117C8.43954 18.6755 8.43954 19.4298 8.88879 19.8935C9.11612 20.1254 9.4084 20.2427 9.70339 20.2427C9.99837 20.2427 10.2934 20.1254 10.5207 19.8935L12.6803 17.6641L14.8427 19.8935C15.2919 20.3601 16.0199 20.3601 16.4719 19.8935C16.9211 19.4298 16.9211 18.6755 16.4719 18.2117L14.2716 15.9432Z" fill="#030A1A"/>
  </symbol>
  <symbol viewBox="0 0 25 25" id="reddit">
    <path d="M12.5 0C5.59692 0 0 5.59692 0 12.5C0 19.4031 5.59692 25 12.5 25C19.4031 25 25 19.4031 25 12.5C25 5.59692 19.4031 0 12.5 0Z"/>
    <path d="M13.8509 5.55566C13.4055 5.55566 12.9876 5.7816 12.7195 6.10741C12.4514 6.43323 12.3037 6.8304 12.196 7.24897C12.0251 7.92201 11.9723 8.66877 11.9596 9.34181C10.7079 9.42505 9.57444 9.79606 8.63303 10.3692C8.25098 10.0481 7.79083 9.86978 7.34968 9.87454C6.84731 9.87929 6.37028 10.0957 6.01566 10.5404C5.3381 11.3895 5.4162 12.7784 6.20141 13.6036C6.15286 13.8581 6.11698 14.1197 6.11698 14.3837C6.11698 17.1805 8.97498 19.4446 12.5 19.4446C16.025 19.4446 18.883 17.1781 18.883 14.3837C18.883 14.1197 18.8471 13.8581 18.7986 13.6036C19.5838 12.7784 19.6619 11.3895 18.9843 10.5404C18.6297 10.0957 18.1527 9.87929 17.6503 9.87454C17.2091 9.86978 16.749 10.0481 16.3669 10.3692C15.4298 9.79843 14.3026 9.42743 13.0572 9.34181C13.0741 8.72109 13.1184 8.07659 13.243 7.59143C13.3211 7.28702 13.414 7.06584 13.5132 6.94455C13.6124 6.82326 13.6841 6.77332 13.8509 6.77332C14.2118 6.77332 14.2583 6.88985 14.4757 7.17286C14.5854 7.31556 14.7121 7.49393 14.9147 7.66754C15.1174 7.84115 15.4171 7.99098 15.7421 7.99098V6.77332C15.6514 6.77332 15.6345 6.77094 15.5733 6.71624C15.5121 6.66154 15.4276 6.5355 15.3031 6.37378C15.054 6.04796 14.5707 5.55566 13.8509 5.55566ZM17.3632 5.66982C16.5231 5.66982 15.8435 6.43561 15.8435 7.38215C15.8435 8.32869 16.5231 9.09448 17.3632 9.09448C18.2033 9.09448 18.883 8.32869 18.883 7.38215C18.883 6.43561 18.2033 5.66982 17.3632 5.66982ZM17.3632 6.27865C17.9036 6.27865 18.3426 6.77332 18.3426 7.38215C18.3426 7.99098 17.9036 8.48565 17.3632 8.48565C16.8229 8.48565 16.3838 7.99098 16.3838 7.38215C16.3838 6.77332 16.8229 6.27865 17.3632 6.27865ZM12.5 10.2931C15.491 10.2931 18.0218 12.1695 18.0218 14.3837C18.0218 16.6002 15.491 18.4742 12.5 18.4742C9.50901 18.4742 6.97818 16.6002 6.97818 14.3837C6.97818 12.1695 9.50901 10.2931 12.5 10.2931ZM7.36656 10.8449C7.51643 10.8472 7.67263 10.8853 7.82249 10.959C7.28002 11.4228 6.84942 11.9555 6.55602 12.5572C6.35339 12.0863 6.40827 11.4989 6.65734 11.1873C6.83887 10.959 7.09005 10.8425 7.36656 10.8449ZM17.6334 10.8449C17.9099 10.8425 18.1611 10.959 18.3426 11.1873C18.5917 11.4989 18.6466 12.0863 18.4439 12.5572C18.1506 11.9555 17.72 11.4228 17.1775 10.959C17.3273 10.8853 17.4835 10.8472 17.6334 10.8449ZM10.3385 12.3669C9.79819 12.3669 9.35914 12.8616 9.35914 13.4704C9.35914 14.0793 9.79819 14.5739 10.3385 14.5739C10.8789 14.5739 11.3179 14.0793 11.3179 13.4704C11.3179 12.8616 10.8789 12.3669 10.3385 12.3669ZM14.6614 12.3669C14.1211 12.3669 13.682 12.8616 13.682 13.4704C13.682 14.0793 14.1211 14.5739 14.6614 14.5739C15.2018 14.5739 15.6408 14.0793 15.6408 13.4704C15.6408 12.8616 15.2018 12.3669 14.6614 12.3669ZM9.81507 16.115C10.1591 16.9165 11.223 17.6942 12.5 17.6942C13.777 17.6942 14.8577 16.9165 15.2018 16.115C14.577 16.5693 13.5913 16.8761 12.5 16.8761C11.4087 16.8761 10.4399 16.5693 9.81507 16.115Z" fill="#030A1A"/>
  </symbol>
  <symbol viewBox="0 0 25 25" id="vk">
    <path d="M12.5 0C5.59692 0 0 5.59692 0 12.5C0 19.4031 5.59692 25 12.5 25C19.4031 25 25 19.4031 25 12.5C25 5.59692 19.4031 0 12.5 0Z"/>
    <path d="M13.7227 15.0518C14.1654 14.9087 14.7322 15.9964 15.3355 16.4127C15.7884 16.728 16.1352 16.6599 16.1352 16.6599L17.7434 16.6368C17.7434 16.6368 18.5838 16.5849 18.1865 15.9172C18.1536 15.8616 17.9536 15.4222 16.9895 14.5179C15.9815 13.5718 16.1181 13.7251 17.3317 12.0896C18.0712 11.0927 18.3671 10.4838 18.2745 10.2244C18.1856 9.97486 17.6424 10.0397 17.6424 10.0397L15.8305 10.0522C15.6541 10.0527 15.5045 10.1073 15.4365 10.2907C15.4351 10.2925 15.1489 11.0621 14.7674 11.7164C13.9612 13.1005 13.6394 13.1741 13.506 13.0875C13.1999 12.887 13.2773 12.2832 13.2773 11.8539C13.2773 10.5125 13.4773 9.9531 12.8855 9.80863C12.6878 9.76047 12.5433 9.72898 12.0391 9.72435C11.3945 9.71463 10.8472 9.72435 10.5369 9.8767C10.3309 9.97996 10.173 10.2064 10.2688 10.2194C10.3892 10.2356 10.6592 10.2934 10.8036 10.4907C10.9893 10.7463 10.9838 11.3191 10.9838 11.3191C10.9838 11.3191 11.0898 12.8986 10.7337 13.0944C10.4892 13.2287 10.1549 12.9546 9.43578 11.6979C9.06858 11.0552 8.79121 10.3448 8.79121 10.3448C8.79121 10.3448 8.7375 10.2129 8.64026 10.1406C8.52449 10.055 8.36243 10.0277 8.36243 10.0277L6.64265 10.0388C6.64265 10.0388 6.38427 10.0462 6.28935 10.1601C6.20507 10.261 6.2824 10.4694 6.2824 10.4694C6.2824 10.4694 7.62942 13.6557 9.15471 15.2606C10.5531 16.734 12.1423 16.6363 12.1423 16.6363H12.8624C12.8624 16.6363 13.0795 16.6113 13.1907 16.4918C13.2944 16.3807 13.2898 16.1719 13.2898 16.1719C13.2898 16.1719 13.2754 15.1953 13.7227 15.0518Z" fill="#030A1A"/>
  </symbol>
  <symbol viewBox="0 0 81 16" id="supergym-logo">
    <path d="M4.608 15.168C3.76 15.168 3.032 15.048 2.424 14.808C1.832 14.568 1.376 14.144 1.056 13.536C0.736 12.928 0.576 12.072 0.576 10.968V10.128C1.072 10.128 1.56 10.128 2.04 10.128C2.52 10.128 3 10.128 3.48 10.128V11.208C3.48 11.8 3.528 12.256 3.624 12.576C3.72 12.88 3.856 13.096 4.032 13.224C4.208 13.336 4.416 13.392 4.656 13.392C5.024 13.392 5.312 13.264 5.52 13.008C5.744 12.736 5.856 12.216 5.856 11.448C5.856 10.856 5.76 10.416 5.568 10.128C5.392 9.824 5.104 9.584 4.704 9.408C4.304 9.216 3.792 8.984 3.168 8.712C2.608 8.472 2.144 8.184 1.776 7.848C1.408 7.512 1.136 7.088 0.96 6.576C0.784 6.064 0.696 5.44 0.696 4.704C0.696 3.776 0.816 3.024 1.056 2.448C1.312 1.872 1.728 1.456 2.304 1.2C2.896 0.927999 3.688 0.792 4.68 0.792C5.96 0.792 6.936 1.072 7.608 1.632C8.296 2.176 8.64 3 8.64 4.104V5.808C8.176 5.808 7.712 5.808 7.248 5.808C6.8 5.808 6.336 5.808 5.856 5.808V4.944C5.856 4.224 5.768 3.72 5.592 3.432C5.432 3.144 5.136 3 4.704 3C4.288 3 3.992 3.128 3.816 3.384C3.64 3.64 3.552 4.056 3.552 4.632C3.552 5.16 3.656 5.576 3.864 5.88C4.088 6.168 4.368 6.392 4.704 6.552C5.04 6.696 5.4 6.84 5.784 6.984C6.488 7.256 7.064 7.536 7.512 7.824C7.96 8.096 8.288 8.48 8.496 8.976C8.704 9.456 8.808 10.152 8.808 11.064C8.808 12.088 8.632 12.904 8.28 13.512C7.944 14.104 7.456 14.528 6.816 14.784C6.192 15.04 5.456 15.168 4.608 15.168ZM14.751 15.288C14.175 15.288 13.647 15.248 13.167 15.168C12.687 15.088 12.271 14.92 11.919 14.664C11.567 14.408 11.295 14.032 11.103 13.536C10.911 13.024 10.815 12.336 10.815 11.472V0.816H13.599V12.264C13.599 12.6 13.647 12.872 13.743 13.08C13.855 13.272 13.999 13.4 14.175 13.464C14.351 13.528 14.543 13.56 14.751 13.56C14.943 13.56 15.127 13.528 15.303 13.464C15.479 13.4 15.615 13.272 15.711 13.08C15.823 12.872 15.879 12.6 15.879 12.264V0.816H18.663V11.472C18.663 12.32 18.567 13 18.375 13.512C18.183 14.024 17.911 14.408 17.559 14.664C17.223 14.92 16.807 15.088 16.311 15.168C15.831 15.248 15.311 15.288 14.751 15.288ZM21.1164 15V0.816H26.1564C27.1004 0.816 27.8124 1.032 28.2924 1.464C28.7884 1.88 29.0364 2.464 29.0364 3.216V5.664C29.0364 6.304 28.9564 6.904 28.7964 7.464C28.6364 8.008 28.3484 8.448 27.9324 8.784C27.5164 9.12 26.9164 9.288 26.1324 9.288H24.0204V15H21.1164ZM24.0204 7.752H25.1004C25.4844 7.752 25.7724 7.568 25.9644 7.2C26.1564 6.832 26.2524 6.224 26.2524 5.376V4.416C26.2524 3.664 26.1724 3.128 26.0124 2.808C25.8524 2.488 25.6204 2.328 25.3164 2.328H24.0204V7.752ZM31.0183 15V0.816H37.5463V2.784H33.9223V6.576H36.9943V8.76H33.9223V13.08H37.5463V15H31.0183ZM39.5139 15V0.816H44.6979C45.6419 0.816 46.3539 1.032 46.8339 1.464C47.3139 1.88 47.5539 2.464 47.5539 3.216V5.424C47.5539 6.176 47.3539 6.808 46.9539 7.32C46.5539 7.832 45.9299 8.128 45.0819 8.208C45.6259 8.288 46.0099 8.472 46.2339 8.76C46.4739 9.032 46.6819 9.48 46.8579 10.104L48.2019 15H45.1059L44.0739 10.296C43.9779 9.912 43.8659 9.592 43.7379 9.336C43.6259 9.064 43.4579 8.928 43.2339 8.928H42.4179V15H39.5139ZM42.4179 6.984H43.5699C44.0179 6.984 44.3379 6.864 44.5299 6.624C44.7219 6.368 44.8179 5.968 44.8179 5.424V3.72C44.8179 3.208 44.7299 2.848 44.5539 2.64C44.3779 2.432 44.1059 2.328 43.7379 2.328H42.4179V6.984ZM53.0481 15.264C52.5041 15.264 51.9921 15.176 51.5121 15C51.0481 14.824 50.6641 14.48 50.3601 13.968C50.0561 13.44 49.9041 12.656 49.9041 11.616V3.84C49.9041 3.008 50.0641 2.36 50.3841 1.896C50.7201 1.432 51.1841 1.112 51.7761 0.935999C52.3681 0.743999 53.0561 0.647999 53.8401 0.647999C54.6241 0.647999 55.3121 0.743999 55.9041 0.935999C56.5121 1.112 56.9841 1.432 57.3201 1.896C57.6721 2.36 57.8481 3.008 57.8481 3.84V5.832H55.1361V3.696C55.1361 3.312 55.0801 3.024 54.9681 2.832C54.8721 2.624 54.7361 2.488 54.5601 2.424C54.3841 2.36 54.1681 2.328 53.9121 2.328C53.6721 2.328 53.4561 2.36 53.2641 2.424C53.0881 2.488 52.9441 2.624 52.8321 2.832C52.7361 3.024 52.6881 3.312 52.6881 3.696V12.288C52.6881 12.656 52.7361 12.944 52.8321 13.152C52.9441 13.344 53.0881 13.48 53.2641 13.56C53.4561 13.624 53.6721 13.656 53.9121 13.656C54.2801 13.656 54.5761 13.544 54.8001 13.32C55.0241 13.096 55.1361 12.752 55.1361 12.288V9.456H53.9841V7.872H57.8481V15H55.7601L55.6161 13.896C55.5841 13.944 55.5521 13.992 55.5201 14.04C55.4881 14.088 55.4641 14.128 55.4481 14.16C55.2881 14.432 55.0161 14.688 54.6321 14.928C54.2641 15.152 53.7361 15.264 53.0481 15.264ZM61.9866 15V8.976L59.3226 0.816H62.1066L63.3306 5.064L63.4986 5.976L63.6666 5.064L64.9866 0.816H67.5306L64.7706 9.12V15H61.9866ZM69.2664 15V0.816H72.7464L74.6904 9.984L76.6584 0.816H80.1144V15H77.6664V4.392L75.6264 15H73.7304L71.7144 4.392V15H69.2664Z" fill="white"/>
  </symbol>
  <symbol viewBox="0 0 18 34" id="arrow">
    <path d="M1 1L17 17L1 33"/>
  </symbol>
  <symbol viewBox="0 0 30 42" id="ruble">
    <path fill-rule="evenodd" clip-rule="evenodd" d="M0 17H6V23H0V17Z" fill="#102654"/>
    <path fill-rule="evenodd" clip-rule="evenodd" d="M3.65854 28.3214V18H9.65854V28.3214H21V34.3214H9.65854V42H3.65854V34.3214H0V28.3214H3.65854Z" fill="#102654"/>
    <path fill-rule="evenodd" clip-rule="evenodd" d="M18.5 6H10V17H18.5C21.5376 17 24 14.5376 24 11.5C24 8.46243 21.5376 6 18.5 6ZM4 0V23H18.5C24.8513 23 30 17.8513 30 11.5C30 5.14873 24.8513 0 18.5 0H4Z" fill="#102654"/>
  </symbol>
  <symbol viewBox="0 0 73 73" id="play-button">
    <circle class="outer-circle" cx="36.5" cy="36.5" r="35.5" stroke="url(#paint0_linear_13506_23)" stroke-opacity="0.2" stroke-width="2"/>
    <circle cx="36" cy="36" r="26" fill="url(#paint1_linear_13506_23)"/>
    <path d="M42 36L33 41.1962L33 30.8038L42 36Z" fill="white"/>
    <defs>
    <linearGradient id="paint0_linear_13506_23" x1="14.435" y1="2.1949e-05" x2="77.2232" y2="7.77042" gradientUnits="userSpaceOnUse">
    <stop stop-color="#ED0233"/>
    <stop offset="1" stop-color="#003EB7"/>
    </linearGradient>
    <linearGradient id="paint1_linear_13506_23" x1="10" y1="35.6533" x2="39.0231" y2="6.52189" gradientUnits="userSpaceOnUse">
    <stop stop-color="#003D85"/>
    <stop offset="0.885417" stop-color="#B80027"/>
    </linearGradient>
    </defs>
  </symbol>
</svg>
